<svg width="50" height="50" viewBox="0 0 50 50" fill="none" xmlns="http://www.w3.org/2000/svg">
<mask id="path-1-inside-1_94_1086" fill="white">
<path d="M8.33325 13.3198C8.33325 12.8431 8.66971 12.4327 9.13714 12.3392L10.0827 12.1501C15.4069 11.0853 20.3219 8.55821 24.2808 4.86159C24.6845 4.48466 25.3154 4.48466 25.719 4.86159C29.6779 8.55821 34.5929 11.0853 39.9171 12.1501L40.8627 12.3392C41.3301 12.4327 41.6666 12.8431 41.6666 13.3198V22.4331C41.6666 33.4842 35.1245 43.4872 24.9999 47.9167C14.8753 43.4872 8.33325 33.4842 8.33325 22.4331V13.3198Z"/>
</mask>
<path d="M24.9999 47.9167L23.7975 50.6652L24.9999 51.1912L26.2024 50.6652L24.9999 47.9167ZM39.9171 12.1501L40.5055 9.20838L39.9171 12.1501ZM10.0827 12.1501L10.6711 15.0919H10.6711L10.0827 12.1501ZM40.8627 12.3392L40.2744 15.281L40.8627 12.3392ZM24.2808 4.86159L26.3282 7.0543L24.2808 4.86159ZM9.13714 12.3392L8.54879 9.3975L9.13714 12.3392ZM38.6666 13.3198V22.4331H44.6666V13.3198H38.6666ZM11.3333 22.4331V13.3198H5.33325V22.4331H11.3333ZM5.33325 22.4331C5.33325 34.6761 12.5809 45.7579 23.7975 50.6652L26.2024 45.1682C17.1698 41.2164 11.3333 32.2923 11.3333 22.4331H5.33325ZM38.6666 22.4331C38.6666 32.2923 32.8301 41.2164 23.7975 45.1682L26.2024 50.6652C37.4189 45.7579 44.6666 34.6761 44.6666 22.4331H38.6666ZM9.72548 15.281L10.6711 15.0919L9.49438 9.20838L8.54879 9.3975L9.72548 15.281ZM39.3288 15.0919L40.2744 15.281L41.451 9.3975L40.5055 9.20838L39.3288 15.0919ZM23.6716 7.0543C28.0374 11.1308 33.4574 13.9176 39.3288 15.0919L40.5055 9.20838C35.7284 8.25298 31.3185 5.98559 27.7665 2.66887L23.6716 7.0543ZM10.6711 15.0919C16.5424 13.9176 21.9625 11.1308 26.3282 7.0543L22.2334 2.66887C18.6813 5.98559 14.2714 8.25298 9.49438 9.20838L10.6711 15.0919ZM44.6666 13.3198C44.6666 11.4131 43.3207 9.77144 41.451 9.3975L40.2744 15.281C39.3395 15.094 38.6666 14.2732 38.6666 13.3198H44.6666ZM27.7665 2.66887C26.2101 1.21557 23.7898 1.21556 22.2334 2.66887L26.3282 7.0543C25.5792 7.75376 24.4207 7.75376 23.6716 7.0543L27.7665 2.66887ZM11.3333 13.3198C11.3333 14.2732 10.6603 15.094 9.72548 15.281L8.54879 9.3975C6.67909 9.77144 5.33325 11.4131 5.33325 13.3198H11.3333Z" fill="#DC3F3F" mask="url(#path-1-inside-1_94_1086)"/>
<path d="M18.5 26.5L24 31L32.5 22.5" stroke="#4E4E4E" stroke-width="3"/>
</svg>
