<svg width="50" height="50" viewBox="0 0 50 50" fill="none" xmlns="http://www.w3.org/2000/svg">
<path d="M31.25 25C31.25 28.4518 28.4518 31.25 25 31.25C21.5482 31.25 18.75 28.4518 18.75 25C18.75 21.5482 21.5482 18.75 25 18.75C28.4518 18.75 31.25 21.5482 31.25 25Z" stroke="#4E4E4E" stroke-width="3"/>
<path d="M21.7572 6.25L20.7884 12.1853C18.991 12.7702 17.3591 13.7194 15.9808 14.9453L10.3834 12.8166L7.14062 18.4333L11.7504 22.2023C11.559 23.1049 11.4583 24.0407 11.4583 25C11.4583 25.9592 11.559 26.895 11.7504 27.7976L7.14062 31.5666L10.3834 37.1833L15.9888 35.0618C17.3654 36.2842 18.9945 37.2309 20.7884 37.8147L21.7572 43.75H28.2428L29.2116 37.8147C31.0091 37.2298 32.641 36.2806 34.0193 35.0547L39.6167 37.1834L42.8594 31.5667L38.2497 27.7977C38.441 26.8951 38.5417 25.9593 38.5417 25C38.5417 24.0408 38.4411 23.105 38.2497 22.2024L42.8594 18.4334L39.6167 12.8167L34.0112 14.9382C32.6346 13.7158 31.0056 12.7691 29.2116 12.1853L28.2428 6.25H21.7572Z" stroke="#DC3F3F" stroke-width="3"/>
</svg>
