<svg width="50" height="50" viewBox="0 0 50 50" fill="none" xmlns="http://www.w3.org/2000/svg">
<path fill-rule="evenodd" clip-rule="evenodd" d="M25.45 7.75001C26.0954 7.5567 26.5657 6.95828 26.5657 6.25001C26.5657 5.54175 26.0954 4.94333 25.45 4.75001L38.5834 4.75001C39.9641 4.75001 41.0834 5.8693 41.0834 7.25001V44.8333C41.0834 46.2141 39.9641 47.3333 38.5834 47.3333H11.4167C10.036 47.3333 8.91675 46.2141 8.91675 44.8333L8.91675 7.25001C8.91675 5.8693 10.036 4.75001 11.4167 4.75001L24.5501 4.75001C23.9048 4.94333 23.4345 5.54175 23.4345 6.25001C23.4345 6.95828 23.9048 7.5567 24.5501 7.75001L11.9167 7.75001L11.9167 44.3333H38.0834L38.0834 7.75001L25.45 7.75001ZM25.45 7.75001L24.5501 7.75001C24.6926 7.7927 24.8437 7.81564 25.0001 7.81564C25.1565 7.81564 25.3075 7.7927 25.45 7.75001ZM24.5501 4.75001C24.6926 4.70732 24.8437 4.68439 25.0001 4.68439C25.1565 4.68439 25.3075 4.70732 25.45 4.75001L24.5501 4.75001Z" fill="#DC3F3F"/>
<mask id="path-2-inside-1_94_941" fill="white">
<path fill-rule="evenodd" clip-rule="evenodd" d="M32.0001 4.66667V11.6666H18.0002V4.66667H21.9684C22.5736 3.62053 23.7047 2.91669 25.0002 2.91669C26.2956 2.91669 27.4267 3.62053 28.0319 4.66667H32.0001ZM25.0003 7.73173C25.7266 7.73173 26.3154 7.14294 26.3154 6.41662C26.3154 5.69031 25.7266 5.10151 25.0003 5.10151C24.2739 5.10151 23.6851 5.69031 23.6851 6.41662C23.6851 7.14294 24.2739 7.73173 25.0003 7.73173Z"/>
</mask>
<path fill-rule="evenodd" clip-rule="evenodd" d="M32.0001 4.66667V11.6666H18.0002V4.66667H21.9684C22.5736 3.62053 23.7047 2.91669 25.0002 2.91669C26.2956 2.91669 27.4267 3.62053 28.0319 4.66667H32.0001ZM25.0003 7.73173C25.7266 7.73173 26.3154 7.14294 26.3154 6.41662C26.3154 5.69031 25.7266 5.10151 25.0003 5.10151C24.2739 5.10151 23.6851 5.69031 23.6851 6.41662C23.6851 7.14294 24.2739 7.73173 25.0003 7.73173Z" fill="#4E4E4E"/>
<path d="M32.0001 11.6666V12.6666H33.0001V11.6666H32.0001ZM32.0001 4.66667H33.0001V3.66667H32.0001V4.66667ZM18.0002 11.6666H17.0002V12.6666H18.0002V11.6666ZM18.0002 4.66667V3.66667H17.0002V4.66667H18.0002ZM21.9684 4.66667V5.66667H22.5452L22.834 5.16739L21.9684 4.66667ZM28.0319 4.66667L27.1663 5.16739L27.4551 5.66667H28.0319V4.66667ZM33.0001 11.6666V4.66667H31.0001V11.6666H33.0001ZM18.0002 12.6666H32.0001V10.6666H18.0002V12.6666ZM17.0002 4.66667V11.6666H19.0002V4.66667H17.0002ZM21.9684 3.66667H18.0002V5.66667H21.9684V3.66667ZM25.0002 1.91669C23.3333 1.91669 21.8794 2.82351 21.1028 4.16594L22.834 5.16739C23.2678 4.41754 24.0761 3.91669 25.0002 3.91669V1.91669ZM28.8975 4.16594C28.1209 2.82351 26.667 1.91669 25.0002 1.91669V3.91669C25.9242 3.91669 26.7325 4.41754 27.1663 5.16739L28.8975 4.16594ZM32.0001 3.66667H28.0319V5.66667H32.0001V3.66667ZM25.3154 6.41662C25.3154 6.59065 25.1743 6.73173 25.0003 6.73173V8.73173C26.2789 8.73173 27.3154 7.69522 27.3154 6.41662H25.3154ZM25.0003 6.10151C25.1743 6.10151 25.3154 6.24259 25.3154 6.41662H27.3154C27.3154 5.13802 26.2789 4.10151 25.0003 4.10151V6.10151ZM24.6851 6.41662C24.6851 6.24259 24.8262 6.10151 25.0003 6.10151V4.10151C23.7217 4.10151 22.6851 5.13802 22.6851 6.41662H24.6851ZM25.0003 6.73173C24.8262 6.73173 24.6851 6.59065 24.6851 6.41662H22.6851C22.6851 7.69522 23.7217 8.73173 25.0003 8.73173V6.73173Z" fill="#4E4E4E" mask="url(#path-2-inside-1_94_941)"/>
<path d="M18.5 26.5L24 31L32.5 22.5" stroke="#4E4E4E" stroke-width="3"/>
</svg>
