<svg width="50" height="50" viewBox="0 0 50 50" fill="none" xmlns="http://www.w3.org/2000/svg">
<path d="M18.1666 4.16669C18.1666 3.33826 17.4951 2.66669 16.6666 2.66669C15.8382 2.66669 15.1666 3.33826 15.1666 4.16669H18.1666ZM16.6666 16.6667H15.1666V18.1667H16.6666V16.6667ZM34.8333 4.16669C34.8333 3.33826 34.1617 2.66669 33.3333 2.66669C32.5049 2.66669 31.8333 3.33826 31.8333 4.16669H34.8333ZM33.3333 16.6667V18.1667H34.8333V16.6667H33.3333ZM15.1666 4.16669V16.6667H18.1666V4.16669H15.1666ZM31.8333 4.16669V16.6667H34.8333V4.16669H31.8333ZM16.6666 18.1667H33.3333V15.1667H16.6666V18.1667Z" fill="#4E4E4E"/>
<path d="M10.4166 29.1667H8.91663V29.788L9.35597 30.2273L10.4166 29.1667ZM20.8333 39.5834H22.3333V38.962L21.894 38.5227L20.8333 39.5834ZM20.8333 45.8334H19.3333V47.3334H20.8333V45.8334ZM39.5833 29.1667L40.644 30.2273L41.0833 29.788V29.1667H39.5833ZM29.1666 39.5834L28.106 38.5227L27.6666 38.962V39.5834H29.1666ZM29.1666 45.8334V47.3334H30.6666V45.8334H29.1666ZM16.6666 15.1667H11.4166V18.1667H16.6666V15.1667ZM8.91663 17.6667V29.1667H11.9166V17.6667H8.91663ZM9.35597 30.2273L19.7726 40.644L21.894 38.5227L11.4773 28.106L9.35597 30.2273ZM19.3333 39.5834V45.8334H22.3333V39.5834H19.3333ZM33.3333 18.1667H38.5833V15.1667H33.3333V18.1667ZM38.0833 17.6667V29.1667H41.0833V17.6667H38.0833ZM38.5226 28.106L28.106 38.5227L30.2273 40.644L40.644 30.2273L38.5226 28.106ZM27.6666 39.5834V45.8334H30.6666V39.5834H27.6666ZM16.6666 18.1667H33.3333V15.1667H16.6666V18.1667ZM20.8333 47.3334H29.1666V44.3334H20.8333V47.3334ZM38.5833 18.1667C38.3071 18.1667 38.0833 17.9428 38.0833 17.6667H41.0833C41.0833 16.286 39.964 15.1667 38.5833 15.1667V18.1667ZM11.4166 15.1667C10.0359 15.1667 8.91663 16.286 8.91663 17.6667H11.9166C11.9166 17.9428 11.6928 18.1667 11.4166 18.1667V15.1667Z" fill="#DC3F3F"/>
</svg>
