<svg width="50" height="50" viewBox="0 0 50 50" fill="none" xmlns="http://www.w3.org/2000/svg">
<path d="M17.3928 22.3104C19.7814 22.631 21.7717 21.9149 23.3179 20.5578C24.8155 19.2434 25.8384 17.3848 26.5223 15.4531C27.5483 12.5556 27.9136 9.20092 27.8029 6.48246C33.2537 9.09847 41.2083 15.9531 41.2083 28.6458C41.2083 37.2679 33.9941 44.3333 25 44.3333C16.0058 44.3333 8.79163 37.2679 8.79163 28.6458C8.79163 23.9729 10.9039 19.7644 14.2758 16.8827C14.3697 17.6656 14.5089 18.374 14.6974 19.0047C15.0761 20.2716 15.7016 21.3785 16.7189 22.0565L16.7189 22.0565C16.9347 22.2004 17.1688 22.2804 17.3928 22.3104ZM17.3928 22.3104L17.5922 20.825L17.3929 22.3104C17.3929 22.3104 17.3928 22.3104 17.3928 22.3104Z" stroke="#DC3F3F" stroke-width="3"/>
<mask id="mask0_94_904" style="mask-type:alpha" maskUnits="userSpaceOnUse" x="25" y="2" width="25" height="46">
<rect x="25" y="2.08334" width="25" height="45.8333" fill="black"/>
</mask>
<g mask="url(#mask0_94_904)">
<path d="M17.3928 22.3104C19.7814 22.631 21.7717 21.9149 23.3179 20.5578C24.8155 19.2434 25.8384 17.3848 26.5223 15.4531C27.5483 12.5556 27.9136 9.20092 27.8029 6.48246C33.2537 9.09847 41.2083 15.9531 41.2083 28.6458C41.2083 37.2679 33.9941 44.3333 25 44.3333C16.0058 44.3333 8.79163 37.2679 8.79163 28.6458C8.79163 23.9729 10.9039 19.7644 14.2758 16.8827C14.3697 17.6656 14.5089 18.374 14.6974 19.0047C15.0761 20.2716 15.7016 21.3785 16.7189 22.0565L16.7189 22.0565C16.9347 22.2004 17.1688 22.2804 17.3928 22.3104ZM17.3928 22.3104L17.5922 20.825L17.3929 22.3104C17.3929 22.3104 17.3928 22.3104 17.3928 22.3104Z" stroke="#4E4E4E" stroke-width="3"/>
</g>
</svg>
