<svg width="50" height="50" viewBox="0 0 50 50" fill="none" xmlns="http://www.w3.org/2000/svg">
<path d="M40.2041 24.2708C40.2041 26.3272 38.4979 28.0417 36.3342 28.0417V31.0417C40.1019 31.0417 43.2041 28.0365 43.2041 24.2708H40.2041ZM36.3342 28.0417C34.1704 28.0417 32.4643 26.3272 32.4643 24.2708H29.4643C29.4643 28.0365 32.5665 31.0417 36.3342 31.0417V28.0417ZM32.4643 24.2708C32.4643 22.2145 34.1704 20.5 36.3342 20.5V17.5C32.5665 17.5 29.4643 20.5052 29.4643 24.2708H32.4643ZM36.3342 20.5C38.4979 20.5 40.2041 22.2145 40.2041 24.2708H43.2041C43.2041 20.5052 40.1019 17.5 36.3342 17.5V20.5ZM36.3342 36.1208C40.1564 36.1208 43.4489 38.7386 44.564 42.4334L47.436 41.5666C45.9696 36.7076 41.5833 33.1208 36.3342 33.1208V36.1208ZM30.9614 38.087C32.441 36.8517 34.3072 36.1208 36.3342 36.1208V33.1208C33.5672 33.1208 31.0284 34.1229 29.0386 35.7842L30.9614 38.087Z" fill="#4E4E4E"/>
<path d="M30.5319 37.0263L31.7413 36.1389L30.5319 37.0263ZM25.0556 18C25.0556 21.5801 22.1303 24.5 18.5 24.5V27.5C23.7676 27.5 28.0556 23.2565 28.0556 18H25.0556ZM18.5 24.5C14.8697 24.5 11.9444 21.5801 11.9444 18H8.94444C8.94444 23.2565 13.2324 27.5 18.5 27.5V24.5ZM11.9444 18C11.9444 14.4199 14.8697 11.5 18.5 11.5V8.5C13.2324 8.5 8.94444 12.7435 8.94444 18H11.9444ZM18.5 11.5C22.1303 11.5 25.0556 14.4199 25.0556 18H28.0556C28.0556 12.7435 23.7676 8.5 18.5 8.5V11.5ZM5.43741 42.4288C7.20243 36.5117 12.421 32.3 18.5 32.3V29.3C10.9708 29.3 4.67023 34.5056 2.56259 41.5712L5.43741 42.4288ZM18.5 32.3C22.8807 32.3 26.8026 34.4793 29.3226 37.9137L31.7413 36.1389C28.7033 31.9987 23.9132 29.3 18.5 29.3V32.3ZM29.3226 37.9137C30.3035 39.2504 31.0692 40.7748 31.5626 42.4288L34.4374 41.5712C33.8453 39.5863 32.9249 37.7519 31.7413 36.1389L29.3226 37.9137Z" fill="#DC3F3F"/>
</svg>
