<svg width="50" height="50" viewBox="0 0 50 50" fill="none" xmlns="http://www.w3.org/2000/svg">
<path d="M25 11.7624C28.6771 9.58153 32.9464 8.33331 37.5 8.33331C40.4219 8.33331 43.2268 8.84727 45.8333 9.79183V39.696C43.2268 38.7515 40.4219 38.2375 37.5 38.2375C32.9464 38.2375 28.6771 39.4857 25 41.6666M25 11.7624V41.6666M25 11.7624C21.3228 9.58153 17.0535 8.33331 12.5 8.33331C9.578 8.33331 6.77312 8.84727 4.16663 9.79183V39.696C6.77312 38.7515 9.578 38.2375 12.5 38.2375C17.0535 38.2375 21.3228 39.4857 25 41.6666" stroke="#DC3F3F" stroke-width="3"/>
<mask id="mask0_94_1142" style="mask-type:alpha" maskUnits="userSpaceOnUse" x="25" y="2" width="25" height="46">
<rect x="25" y="2.08331" width="25" height="45.8333" fill="black"/>
</mask>
<g mask="url(#mask0_94_1142)">
<path d="M25 11.7624C28.6771 9.58153 32.9464 8.33331 37.5 8.33331C40.4219 8.33331 43.2268 8.84727 45.8333 9.79183V39.696C43.2268 38.7515 40.4219 38.2375 37.5 38.2375C32.9464 38.2375 28.6771 39.4857 25 41.6666M25 11.7624V41.6666M25 11.7624C21.3228 9.58153 17.0535 8.33331 12.5 8.33331C9.578 8.33331 6.77312 8.84727 4.16663 9.79183V39.696C6.77312 38.7515 9.578 38.2375 12.5 38.2375C17.0535 38.2375 21.3228 39.4857 25 41.6666" stroke="#4E4E4E" stroke-width="3"/>
</g>
</svg>
